<?xml version="1.0" encoding="utf-8"?>
<!-- Generator: Adobe Illustrator 22.1.0, SVG Export Plug-In . SVG Version: 6.00 Build 0)  -->
<svg version="1.1" id="Voorstel_02a" xmlns="http://www.w3.org/2000/svg" xmlns:xlink="http://www.w3.org/1999/xlink" x="0px"
	 y="0px" viewBox="0 0 284 284" style="enable-background:new 0 0 284 284;" xml:space="preserve">
<style type="text/css">
	.st0{fill:#FFFFFF;}
	.st1{fill:#323C3C;}
	.st2{fill:#FAE628;}
</style>
<title>Tekengebied 1</title>
<ellipse class="st0" cx="142" cy="142" rx="142" ry="142"/>
<ellipse class="st1" cx="142" cy="142" rx="139.2" ry="139.2"/>
<path class="st0" d="M79.2,209.7v6.2H75v-17.6h6.7c1.7-0.1,3.4,0.4,4.7,1.6c1.1,1.1,1.7,2.6,1.6,4.2c0,1-0.2,2-0.7,2.9
	c-0.5,0.9-1.2,1.6-2.1,2c-1.1,0.5-2.2,0.8-3.4,0.7L79.2,209.7z M83.8,204c0-1.5-0.8-2.3-2.5-2.3h-2.1v4.6h2.1
	C83,206.3,83.8,205.5,83.8,204z"/>
<path class="st0" d="M96.6,212.6h5.5v3.3h-9.7v-17.6h4.1V212.6z"/>
<path class="st0" d="M117.2,212.6h-6.4l-1.1,3.2h-4.4l6.3-17.5h4.8l6.2,17.5h-4.4L117.2,212.6z M116.1,209.4l-2.1-6.5l-2.2,6.5
	H116.1z"/>
<path class="st0" d="M138.4,213.5c-0.5,0.8-1.2,1.5-2,1.9c-1,0.5-2.1,0.7-3.3,0.7c-1.7,0.1-3.4-0.4-4.8-1.5c-1.2-1-2-2.4-2-4h4.3
	c0,0.6,0.3,1.1,0.7,1.6c0.4,0.4,1,0.6,1.5,0.6c0.5,0,0.9-0.1,1.3-0.5c0.6-0.7,0.6-1.7,0-2.3c-0.3-0.3-0.7-0.6-1.1-0.7
	c-0.4-0.2-1-0.4-1.7-0.7c-0.9-0.3-1.8-0.7-2.7-1.1c-0.7-0.4-1.3-0.9-1.8-1.6c-0.5-0.8-0.8-1.8-0.7-2.8c0-1,0.2-1.9,0.8-2.7
	c0.5-0.8,1.3-1.4,2.2-1.8c1-0.4,2.1-0.6,3.1-0.6c1.6-0.1,3.3,0.4,4.6,1.4c1.1,1,1.8,2.4,1.9,3.8h-4.5c-0.1-0.5-0.3-1-0.6-1.4
	c-0.4-0.4-0.9-0.5-1.4-0.5c-0.4,0-0.8,0.1-1.2,0.4c-0.6,0.6-0.6,1.6,0,2.2c0.3,0.3,0.6,0.5,1,0.7c0.4,0.2,1,0.4,1.8,0.7
	c0.9,0.3,1.8,0.7,2.7,1.1c0.7,0.4,1.3,1,1.8,1.6c0.5,0.8,0.8,1.8,0.8,2.8C139.1,211.8,138.9,212.7,138.4,213.5z"/>
<path class="st0" d="M156.2,198.2v3.4h-4.7v14.2h-4.2v-14.3h-4.6v-3.4H156.2z"/>
<path class="st0" d="M164.6,201.6v3.7h5.8v3.2h-5.8v3.9h6.5v3.4h-10.7v-17.6h10.7v3.4L164.6,201.6z"/>
<path class="st0" d="M184.7,215.9l-3.7-6.7h-1v6.7h-4.2v-17.6h7.1c1.2,0,2.4,0.2,3.4,0.7c0.9,0.4,1.6,1.1,2.1,2
	c0.5,0.9,0.7,1.9,0.7,2.9c0,1.2-0.3,2.3-1,3.3c-0.8,0.9-1.8,1.6-3,1.9l4.1,6.9L184.7,215.9z M180.1,206.3h2.6
	c0.7,0.1,1.3-0.1,1.8-0.6c0.8-1,0.8-2.4,0-3.3c-0.5-0.4-1.2-0.6-1.8-0.6h-2.6L180.1,206.3z"/>
<path class="st0" d="M208.7,198.2l-6,11.8v5.9h-4.2V210l-6-11.8h4.8l3.3,7.2l3.3-7.2H208.7z"/>
<path class="st2" d="M62.8,160.9c-2.5,0-5.1-0.5-7.4-1.4l0,0c-0.4-0.1-0.7-0.3-1-0.5l-0.4-0.2l-0.5-0.3c-4.3-2.3-7.6-6-9.4-10.5l0,0
	c-1.9-4.7-1.9-10,0-14.8l0,0c1.8-4.5,5.1-8.2,9.4-10.4c0.2-0.1,0.3-0.2,0.5-0.3l0.4-0.2c0.3-0.2,0.7-0.3,1-0.4l0,0
	c10.3-4.1,22,0.9,26.1,11.2c0,0,0,0.1,0,0.1h14c-4.1-18.1-22-29.5-40.1-25.4c-0.5,0.1-1,0.2-1.5,0.4l-0.4,0.1l-1,0.3
	c-0.3,0.1-0.5,0.2-0.8,0.3l-0.5,0.2c-17.4,6.3-26.5,25.5-20.2,43c3.4,9.4,10.8,16.8,20.2,20.2l0.5,0.2c0.3,0.1,0.5,0.2,0.8,0.3
	l1,0.3l0.4,0.1c17.9,4.9,36.3-5.7,41.2-23.6c0.1-0.5,0.2-1,0.4-1.4h-14C78.6,155.8,71.1,160.9,62.8,160.9z"/>
<rect x="107.6" y="108.5" class="st2" width="15.8" height="64.5"/>
<path class="st2" d="M154.5,108.5h-16.3V173h15.8v-49.9c5.1,1.8,9.3,5.8,11.3,10.8h14.6C177,121.3,167.1,111.4,154.5,108.5z"/>
<path class="st2" d="M230.7,109.2l-0.5-0.2c-0.3-0.1-0.5-0.2-0.8-0.3l-1-0.3l-0.4-0.1c-2.9-0.8-5.8-1.2-8.8-1.2l0,0
	c-8.2,0-16.1,3-22.2,8.5l-0.2,0.2l-0.8,0.7l-0.5,0.5l-0.5,0.5c-0.3,0.3-0.5,0.5-0.7,0.8l-0.2,0.2c-10,11.3-11.3,27.9-3,40.5l0,0
	c1.3,1.9,2.7,3.7,4.3,5.4l0.1,0.2c0.5,0.5,1,1,1.6,1.5l0.1,0.1c0.6,0.5,1.1,1,1.7,1.4l0,0c0.6,0.4,1.2,0.8,1.8,1.2l0.3,0.2
	c0.6,0.4,1.2,0.7,1.8,1.1l0.3,0.1c0.6,0.3,1.2,0.7,1.9,1h0.1c0.6,0.3,1.3,0.6,2,0.8l0.4,0.2c0.6,0.2,1.3,0.5,2,0.7l0.4,0.1
	c0.7,0.2,1.4,0.4,2.1,0.6v-14l0,0c-0.6-0.2-1.1-0.5-1.7-0.8l-0.4-0.2c-0.4-0.2-0.9-0.5-1.3-0.8l-0.3-0.2c-0.5-0.3-1-0.7-1.5-1.1
	l-0.2-0.1c-0.4-0.4-0.8-0.7-1.3-1.1l-0.2-0.2c-0.9-0.9-1.7-1.9-2.5-3v-0.1c-0.7-1.1-1.4-2.4-1.9-3.6l0,0c-1.9-4.7-1.9-10,0-14.8l0,0
	c0.9-2.2,2.2-4.2,3.8-6c0.1-0.1,0.1-0.2,0.2-0.2l0.5-0.5c0.2-0.2,0.4-0.4,0.6-0.6l0.2-0.2c1.8-1.6,3.8-2.9,6.1-3.8l0,0
	c2.4-0.9,4.9-1.4,7.4-1.4c8.2,0,15.6,5.1,18.6,12.7h-26.1v14.8h40.2C255.8,131.6,246.6,114.9,230.7,109.2L230.7,109.2z"/>
<path class="st2" d="M215.6,99.9c-0.2-0.3-0.4-0.5-0.3-0.7c0.5-0.5,1.5,0.3,1.9-0.2l-0.2-0.5c0.6,0,1.2,0.1,1.8,0.2
	c0.9-0.4,1.7-0.8,2.5-1.3c-0.1-0.2-0.2-0.3-0.2-0.4c0.5-0.2,1-0.4,1.5-0.4l0.2-0.2c0-0.1-0.1-0.3-0.1-0.4c0.2-0.1,0.5-0.1,0.7-0.1
	c2.1-1.8,4.2-3.8,6.5-5.9c0.3-0.6,0.7-1.2,1.2-1.7c0.9-0.4,1.9-0.7,2.9-0.8c-1-1.6,0.6-3.1-0.7-4.5c0.6-0.2,1.5-0.4,1.3-0.9
	c-0.6-1.4-1.1-3.1,0-4.5c0.5-0.4,1.7-0.2,1.8-0.5c0.1-0.6-1.3-0.7-1.2-1.2c-4.6,1-8.5,3.1-12.9,4.7c-1.1,1.2-11,5.1-13.8,5.7
	l-0.2,0.1c-1.5,0.3-2.9,1.1-4,2.2c-0.3,0.6-0.6,1.2-0.9,1.9c0.4,0.2,0.8,0.4,1.1,0.5c-0.6,0.2-1.2,0.3-1.2,0.7
	c-0.8,1.1,0.3,1.7,1.4,2.6c0.6,0.4,0.6,1.3,1.3,1.6l-1,0.3c0.2,0.5,1-0.6,1.2,0.2c-0.5,0-0.7,0.4-1.1,0.5c0.5,0.6,1.4-0.2,1.7,0.4
	c-0.1,0.2-1.5-0.5-1.2,0.3c0.1,0.2,0.5,0.1,0.7,0c-1,0.6-1.3,1.6,0.3,2c-0.4,0.1-1.1,0-1.4,0.2l0,0c0.2,0,0.6,0,0.8,0l-0.7,0.2
	l0.3,0.3c0.2,0,0.4,0,0.6,0l-0.5,0.1c0.2,0.2,0.5,0.4,0.8,0.6c0.8,0.3,1.7,0.8,2,0.8C210.8,101.2,213.2,100.6,215.6,99.9z"/>
</svg>
